<svg data-v-423bf9ae="" xmlns="http://www.w3.org/2000/svg" viewBox="0 0 477.63443646221685 185" class="iconAboveSlogan"><!----><!----><!----><g data-v-423bf9ae="" id="865a1dbe-4ec7-45b4-96ec-7af7f0ad4cbb" fill="#ffffff" transform="matrix(5.376344159530915,0,0,5.376344159530915,-6.075273212805257,87.94623923228187)"><path d="M2.01 13.78L3.78 3.74L1.13 3.74L1.30 2.80L7.60 2.80L7.44 3.74L4.81 3.74L3.04 13.78L2.01 13.78ZM10.27 5.48L10.27 5.48Q10.93 5.48 11.43 5.70L11.43 5.70L11.43 5.70Q11.94 5.92 12.21 6.35L12.21 6.35L12.21 6.35Q12.49 6.79 12.49 7.40L12.49 7.40L12.49 7.40Q12.49 7.67 12.44 7.93L12.44 7.93L11.41 13.78L10.55 13.78L10.73 12.48L10.66 12.48L10.66 12.48Q10.19 13.15 9.52 13.56L9.52 13.56L9.52 13.56Q8.85 13.96 8.22 13.96L8.22 13.96L8.22 13.96Q7.66 13.96 7.25 13.73L7.25 13.73L7.25 13.73Q6.84 13.51 6.61 13.11L6.61 13.11L6.61 13.11Q6.39 12.71 6.39 12.22L6.39 12.22L6.39 12.22Q6.39 12.05 6.43 11.83L6.43 11.83L6.43 11.83Q6.58 10.99 7.02 10.41L7.02 10.41L7.02 10.41Q7.46 9.83 8.24 9.37L8.24 9.37L8.24 9.37Q9.63 8.65 11.42 8.46L11.42 8.46L11.50 8.00L11.50 8.00Q11.55 7.74 11.55 7.49L11.55 7.49L11.55 7.49Q11.55 6.91 11.24 6.66L11.24 6.66L11.24 6.66Q10.93 6.41 10.31 6.41L10.31 6.41L10.31 6.41Q9.60 6.41 9.06 6.73L9.06 6.73L9.06 6.73Q8.52 7.05 8.07 7.70L8.07 7.70L7.39 7.10L7.39 7.10Q7.98 6.27 8.69 5.87L8.69 5.87L8.69 5.87Q9.40 5.48 10.27 5.48L10.27 5.48ZM8.41 12.99L8.41 12.99Q9.16 12.99 9.79 12.50L9.79 12.50L9.79 12.50Q10.42 12.01 10.93 11.24L10.93 11.24L11.27 9.35L11.27 9.35Q10.52 9.43 9.84 9.66L9.84 9.66L9.84 9.66Q9.15 9.88 8.65 10.23L8.65 10.23L8.65 10.23Q8.19 10.51 7.89 10.91L7.89 10.91L7.89 10.91Q7.58 11.32 7.49 11.83L7.49 11.83L7.49 11.83Q7.46 12.02 7.46 12.09L7.46 12.09L7.46 12.09Q7.46 12.51 7.72 12.75L7.72 12.75L7.72 12.75Q7.98 12.99 8.41 12.99L8.41 12.99ZM13.30 13.78L15.23 2.80L16.22 2.80L14.29 13.78L13.30 13.78ZM20.17 5.48L20.17 5.48Q22.46 5.48 22.46 8.09L22.46 8.09L22.46 8.09Q22.46 8.74 22.29 9.70L22.29 9.70L22.29 9.70Q22.24 10.01 22.20 10.14L22.20 10.14L17.42 10.14L17.42 10.14Q17.37 10.55 17.37 10.84L17.37 10.84L17.37 10.84Q17.37 11.81 17.78 12.41L17.78 12.41L17.78 12.41Q18.18 13.02 19.04 13.02L19.04 13.02L19.04 13.02Q20.07 13.02 20.99 12.20L20.99 12.20L21.51 12.92L21.51 12.92Q20.88 13.47 20.26 13.71L20.26 13.71L20.26 13.71Q19.64 13.94 19.00 13.94L19.00 13.94L19.00 13.94Q18.11 13.94 17.53 13.52L17.53 13.52L17.53 13.52Q16.95 13.10 16.68 12.40L16.68 12.40L16.68 12.40Q16.41 11.69 16.41 10.80L16.41 10.80L16.41 10.80Q16.41 10.26 16.52 9.63L16.52 9.63L16.52 9.63Q16.71 8.52 17.15 7.58L17.15 7.58L17.15 7.58Q17.60 6.65 18.35 6.06L18.35 6.06L18.35 6.06Q19.11 5.48 20.17 5.48L20.17 5.48ZM20.10 6.40L20.10 6.40Q19.06 6.40 18.45 7.21L18.45 7.21L18.45 7.21Q17.84 8.02 17.58 9.26L17.58 9.26L21.46 9.26L21.46 9.26Q21.58 8.48 21.58 7.99L21.58 7.99L21.58 7.99Q21.58 7.19 21.25 6.79L21.25 6.79L21.25 6.79Q20.91 6.40 20.10 6.40L20.10 6.40ZM23.03 13.78L24.47 5.63L25.47 5.63L25.24 6.87L25.29 6.87L25.29 6.87Q25.71 6.21 26.24 5.84L26.24 5.84L26.24 5.84Q26.76 5.48 27.38 5.48L27.38 5.48L27.38 5.48Q28.25 5.48 28.73 6.00L28.73 6.00L28.73 6.00Q29.20 6.53 29.20 7.46L29.20 7.46L29.20 7.46Q29.20 7.83 29.13 8.22L29.13 8.22L28.16 13.78L27.17 13.78L28.14 8.24L28.14 8.24Q28.22 7.81 28.22 7.52L28.22 7.52L28.22 7.52Q28.22 6.92 27.96 6.67L27.96 6.67L27.96 6.67Q27.70 6.41 27.19 6.41L27.19 6.41L27.19 6.41Q26.65 6.41 26.17 6.74L26.17 6.74L26.17 6.74Q25.68 7.08 25.34 7.67L25.34 7.67L25.34 7.67Q24.99 8.26 24.86 9.02L24.86 9.02L24.02 13.78L23.03 13.78ZM31.88 13.78L31.88 13.78Q30.47 13.78 30.47 12.37L30.47 12.37L30.47 12.37Q30.47 12.07 30.54 11.71L30.54 11.71L31.47 6.45L30.48 6.45L30.63 5.63L31.61 5.63L32.09 3.76L32.92 3.76L32.59 5.63L34.34 5.63L34.20 6.45L32.45 6.45L31.55 11.59L31.55 11.59Q31.48 11.95 31.48 12.23L31.48 12.23L31.48 12.23Q31.48 12.62 31.65 12.79L31.65 12.79L31.65 12.79Q31.83 12.95 32.23 12.95L32.23 12.95L32.88 12.95L32.74 13.78L31.88 13.78ZM36.63 13.96L36.63 13.96Q35.46 13.96 34.80 13.22L34.80 13.22L34.80 13.22Q34.13 12.48 34.13 11.03L34.13 11.03L34.13 11.03Q34.13 10.40 34.26 9.67L34.26 9.67L34.26 9.67Q34.51 8.26 35.05 7.32L35.05 7.32L35.05 7.32Q35.59 6.38 36.35 5.93L36.35 5.93L36.35 5.93Q37.11 5.48 38.01 5.48L38.01 5.48L38.01 5.48Q39.16 5.48 39.83 6.22L39.83 6.22L39.83 6.22Q40.50 6.97 40.50 8.43L40.50 8.43L40.50 8.43Q40.50 9.07 40.37 9.81L40.37 9.81L40.37 9.81Q40.13 11.19 39.59 12.12L39.59 12.12L39.59 12.12Q39.04 13.05 38.28 13.50L38.28 13.50L38.28 13.50Q37.52 13.96 36.63 13.96L36.63 13.96ZM36.67 13.04L36.67 13.04Q37.71 13.04 38.42 12.22L38.42 12.22L38.42 12.22Q39.14 11.41 39.44 9.67L39.44 9.67L39.44 9.67Q39.57 8.96 39.57 8.38L39.57 8.38L39.57 8.38Q39.57 6.38 37.97 6.38L37.97 6.38L37.97 6.38Q36.96 6.38 36.24 7.21L36.24 7.21L36.24 7.21Q35.53 8.04 35.22 9.81L35.22 9.81L35.22 9.81Q35.10 10.53 35.10 11.07L35.10 11.07L35.10 11.07Q35.10 13.04 36.67 13.04L36.67 13.04ZM44.43 13.78L46.37 2.80L48.63 2.80L48.63 2.80Q50.40 2.80 51.32 3.79L51.32 3.79L51.32 3.79Q52.25 4.79 52.25 6.70L52.25 6.70L52.25 6.70Q52.25 7.50 52.08 8.46L52.08 8.46L52.08 8.46Q51.78 10.17 51.06 11.36L51.06 11.36L51.06 11.36Q50.33 12.55 49.24 13.17L49.24 13.17L49.24 13.17Q48.14 13.78 46.73 13.78L46.73 13.78L44.43 13.78ZM45.65 12.80L46.69 12.80L46.69 12.80Q48.48 12.80 49.57 11.67L49.57 11.67L49.57 11.67Q50.65 10.53 51.06 8.22L51.06 8.22L51.06 8.22Q51.21 7.32 51.21 6.63L51.21 6.63L51.21 6.63Q51.21 5.18 50.54 4.48L50.54 4.48L50.54 4.48Q49.87 3.77 48.48 3.77L48.48 3.77L47.24 3.77L45.65 12.80ZM55.36 13.96L55.36 13.96Q54.19 13.96 53.52 13.22L53.52 13.22L53.52 13.22Q52.86 12.48 52.86 11.03L52.86 11.03L52.86 11.03Q52.86 10.40 52.99 9.67L52.99 9.67L52.99 9.67Q53.23 8.26 53.77 7.32L53.77 7.32L53.77 7.32Q54.32 6.38 55.07 5.93L55.07 5.93L55.07 5.93Q55.83 5.48 56.73 5.48L56.73 5.48L56.73 5.48Q57.89 5.48 58.56 6.22L58.56 6.22L58.56 6.22Q59.23 6.97 59.23 8.43L59.23 8.43L59.23 8.43Q59.23 9.07 59.10 9.81L59.10 9.81L59.10 9.81Q58.86 11.19 58.31 12.12L58.31 12.12L58.31 12.12Q57.76 13.05 57.00 13.50L57.00 13.50L57.00 13.50Q56.25 13.96 55.36 13.96L55.36 13.96ZM55.40 13.04L55.40 13.04Q56.44 13.04 57.15 12.22L57.15 12.22L57.15 12.22Q57.86 11.41 58.17 9.67L58.17 9.67L58.17 9.67Q58.30 8.96 58.30 8.38L58.30 8.38L58.30 8.38Q58.30 6.38 56.69 6.38L56.69 6.38L56.69 6.38Q55.68 6.38 54.97 7.21L54.97 7.21L54.97 7.21Q54.26 8.04 53.94 9.81L53.94 9.81L53.94 9.81Q53.82 10.53 53.82 11.07L53.82 11.07L53.82 11.07Q53.82 13.04 55.40 13.04L55.40 13.04ZM62.34 13.96L62.34 13.96Q61.13 13.96 60.56 13.15L60.56 13.15L60.56 13.15Q59.99 12.34 59.99 11.00L59.99 11.00L59.99 11.00Q59.99 10.34 60.11 9.66L60.11 9.66L60.11 9.66Q60.31 8.48 60.78 7.54L60.78 7.54L60.78 7.54Q61.24 6.60 61.98 6.04L61.98 6.04L61.98 6.04Q62.72 5.48 63.71 5.48L63.71 5.48L63.71 5.48Q64.75 5.48 65.28 6.02L65.28 6.02L65.28 6.02Q65.82 6.56 65.96 7.58L65.96 7.58L65.06 7.88L65.06 7.88Q65.03 7.13 64.71 6.74L64.71 6.74L64.71 6.74Q64.38 6.35 63.68 6.35L63.68 6.35L63.68 6.35Q62.59 6.35 61.96 7.36L61.96 7.36L61.96 7.36Q61.34 8.37 61.09 9.80L61.09 9.80L61.09 9.80Q60.96 10.53 60.96 11.10L60.96 11.10L60.96 11.10Q60.96 11.98 61.28 12.52L61.28 12.52L61.28 12.52Q61.61 13.06 62.38 13.06L62.38 13.06L62.38 13.06Q63.77 13.06 64.42 11.50L64.42 11.50L65.19 11.89L65.19 11.89Q64.72 12.92 64.03 13.44L64.03 13.44L64.03 13.44Q63.35 13.96 62.34 13.96L62.34 13.96ZM69.95 5.48L69.95 5.48Q72.24 5.48 72.24 8.09L72.24 8.09L72.24 8.09Q72.24 8.74 72.07 9.70L72.07 9.70L72.07 9.70Q72.02 10.01 71.98 10.14L71.98 10.14L67.20 10.14L67.20 10.14Q67.15 10.55 67.15 10.84L67.15 10.84L67.15 10.84Q67.15 11.81 67.56 12.41L67.56 12.41L67.56 12.41Q67.96 13.02 68.82 13.02L68.82 13.02L68.82 13.02Q69.85 13.02 70.77 12.20L70.77 12.20L71.29 12.92L71.29 12.92Q70.66 13.47 70.04 13.71L70.04 13.71L70.04 13.71Q69.42 13.94 68.78 13.94L68.78 13.94L68.78 13.94Q67.89 13.94 67.31 13.52L67.31 13.52L67.31 13.52Q66.73 13.10 66.46 12.40L66.46 12.40L66.46 12.40Q66.19 11.69 66.19 10.80L66.19 10.80L66.19 10.80Q66.19 10.26 66.29 9.63L66.29 9.63L66.29 9.63Q66.49 8.52 66.93 7.58L66.93 7.58L66.93 7.58Q67.38 6.65 68.13 6.06L68.13 6.06L68.13 6.06Q68.89 5.48 69.95 5.48L69.95 5.48ZM69.88 6.40L69.88 6.40Q68.84 6.40 68.23 7.21L68.23 7.21L68.23 7.21Q67.62 8.02 67.35 9.26L67.35 9.26L71.24 9.26L71.24 9.26Q71.36 8.48 71.36 7.99L71.36 7.99L71.36 7.99Q71.36 7.19 71.03 6.79L71.03 6.79L71.03 6.79Q70.69 6.40 69.88 6.40L69.88 6.40ZM72.81 13.78L74.25 5.63L75.25 5.63L75.02 6.87L75.07 6.87L75.07 6.87Q75.49 6.21 76.02 5.84L76.02 5.84L76.02 5.84Q76.54 5.48 77.16 5.48L77.16 5.48L77.16 5.48Q78.03 5.48 78.51 6.00L78.51 6.00L78.51 6.00Q78.98 6.53 78.98 7.46L78.98 7.46L78.98 7.46Q78.98 7.83 78.91 8.22L78.91 8.22L77.94 13.78L76.95 13.78L77.92 8.24L77.92 8.24Q78.00 7.81 78.00 7.52L78.00 7.52L78.00 7.52Q78.00 6.92 77.74 6.67L77.74 6.67L77.74 6.67Q77.48 6.41 76.97 6.41L76.97 6.41L76.97 6.41Q76.43 6.41 75.95 6.74L75.95 6.74L75.95 6.74Q75.46 7.08 75.12 7.67L75.12 7.67L75.12 7.67Q74.77 8.26 74.64 9.02L74.64 9.02L73.80 13.78L72.81 13.78ZM81.66 13.78L81.66 13.78Q80.25 13.78 80.25 12.37L80.25 12.37L80.25 12.37Q80.25 12.07 80.32 11.71L80.32 11.71L81.25 6.45L80.26 6.45L80.40 5.63L81.39 5.63L81.87 3.76L82.70 3.76L82.37 5.63L84.12 5.63L83.98 6.45L82.23 6.45L81.33 11.59L81.33 11.59Q81.26 11.95 81.26 12.23L81.26 12.23L81.26 12.23Q81.26 12.62 81.43 12.79L81.43 12.79L81.43 12.79Q81.61 12.95 82.01 12.95L82.01 12.95L82.66 12.95L82.52 13.78L81.66 13.78ZM87.68 5.48L87.68 5.48Q89.97 5.48 89.97 8.09L89.97 8.09L89.97 8.09Q89.97 8.74 89.80 9.70L89.80 9.70L89.80 9.70Q89.75 10.01 89.71 10.14L89.71 10.14L84.93 10.14L84.93 10.14Q84.88 10.55 84.88 10.84L84.88 10.84L84.88 10.84Q84.88 11.81 85.29 12.41L85.29 12.41L85.29 12.41Q85.70 13.02 86.55 13.02L86.55 13.02L86.55 13.02Q87.58 13.02 88.50 12.20L88.50 12.20L89.02 12.92L89.02 12.92Q88.40 13.47 87.77 13.71L87.77 13.71L87.77 13.71Q87.15 13.94 86.51 13.94L86.51 13.94L86.51 13.94Q85.62 13.94 85.04 13.52L85.04 13.52L85.04 13.52Q84.46 13.10 84.19 12.40L84.19 12.40L84.19 12.40Q83.92 11.69 83.92 10.80L83.92 10.80L83.92 10.80Q83.92 10.26 84.03 9.63L84.03 9.63L84.03 9.63Q84.23 8.52 84.67 7.58L84.67 7.58L84.67 7.58Q85.11 6.65 85.86 6.06L85.86 6.06L85.86 6.06Q86.62 5.48 87.68 5.48L87.68 5.48ZM87.62 6.40L87.62 6.40Q86.57 6.40 85.96 7.21L85.96 7.21L85.96 7.21Q85.35 8.02 85.09 9.26L85.09 9.26L88.97 9.26L88.97 9.26Q89.09 8.48 89.09 7.99L89.09 7.99L89.09 7.99Q89.09 7.19 88.76 6.79L88.76 6.79L88.76 6.79Q88.42 6.40 87.62 6.40L87.62 6.40Z"></path></g><!----><g data-v-423bf9ae="" id="b0fde616-4928-4817-95f2-af5511e14b1a" transform="matrix(1.2638107163702468,0,0,1.2638107163702468,174.10600174212885,-10.317787935063151)" stroke="none" fill="#34A1E5"><path d="M49.999 47.08c-11.145 0-20.188 11.061-20.188 24.689 0 4.551 3.011 8.23 6.73 8.23h26.916c3.72 0 6.73-3.68 6.73-8.23.001-13.628-9.041-24.689-20.188-24.689zM73.699 20.826L55.77 8.96a1.036 1.036 0 0 0-.793-.151l-19.859 4.193c-.4.084-.715.396-.805.798l-.119.537c-.094.423.082.86.445 1.1l8.314 5.503-.339 1.533c-3.004 2.252-4.957 5.83-4.957 9.871 0 6.816 5.529 12.346 12.342 12.346 6.814 0 12.344-5.529 12.344-12.346 0-1.464-.269-2.863-.737-4.166.185-.236.312-.488.371-.755l.414-1.876 5.364-1.133c.667.943 1.103 2.088 1.212 3.547a1.689 1.689 0 0 0-.922 1.5c0 .551.267 1.034.674 1.344-.461 2.352-1.076 6.673.15 8.589.361.563.873.924 1.479 1.039a.76.76 0 0 0 .284-1.49c-.133-.025-.308-.09-.485-.367-.433-.676-.534-2.01-.454-3.516.374 1.168.949 2.219 1.836 2.803a.76.76 0 0 0 .834-1.268c-1.192-.785-1.695-3.477-1.803-5.66.52-.289.875-.837.875-1.474 0-.667-.389-1.238-.949-1.514-.1-1.555-.504-2.82-1.128-3.871l3.861-.816c.401-.084.716-.396.805-.797l.119-.537a1.045 1.045 0 0 0-.444-1.1zm-20.554-4.105c.017-.137.156-.249.415-.304.516-.108 1.313.054 1.78.362.233.154.34.316.322.454l-.076.376c-.018.137-.156.248-.414.303-.518.109-1.313-.053-1.78-.361-.233-.155-.34-.317-.323-.454l.076-.376z"></path></g><!----><g data-v-423bf9ae="" id="8d6e6fbd-5b76-4637-87d8-69718e60f7b1" fill="#ffffff" transform="matrix(0.7439015963563859,0,0,0.7439015963563859,60.045867338148895,201.6634269673608)"><path d="M5.32 15.39L5.14 15.11C5.12 15.08 5.11 15.06 5.08 15.05C5.05 15.04 5.03 15.02 4.98 15.02C4.94 15.02 4.87 15.06 4.79 15.15C4.70 15.23 4.59 15.32 4.44 15.41C4.28 15.51 4.10 15.61 3.88 15.69C3.65 15.78 3.39 15.81 3.07 15.81C2.83 15.81 2.60 15.78 2.38 15.71C2.16 15.64 1.96 15.53 1.79 15.39C1.62 15.25 1.50 15.08 1.40 14.88C1.30 14.69 1.26 14.46 1.26 14.21C1.26 13.90 1.32 13.65 1.43 13.43C1.54 13.20 1.67 13.02 1.83 12.85C2.00 12.68 2.18 12.56 2.38 12.43C2.58 12.31 2.76 12.18 2.93 12.05C3.09 11.93 3.22 11.80 3.33 11.66C3.44 11.52 3.50 11.35 3.50 11.16L3.50 11.13L3.47 9.94L3.01 9.94L2.94 11.07C2.93 11.24 2.86 11.38 2.74 11.51C2.63 11.63 2.46 11.75 2.30 11.86C2.13 11.97 1.95 12.10 1.75 12.24C1.55 12.38 1.37 12.53 1.20 12.71C1.04 12.89 0.90 13.10 0.78 13.36C0.67 13.61 0.62 13.92 0.62 14.27C0.62 14.60 0.69 14.90 0.81 15.15C0.94 15.40 1.11 15.62 1.33 15.81C1.55 15.99 1.81 16.11 2.10 16.21C2.39 16.31 2.70 16.37 3.02 16.37C3.29 16.37 3.53 16.34 3.75 16.28C3.98 16.23 4.17 16.14 4.37 16.06C4.56 15.97 4.73 15.86 4.89 15.75C5.04 15.64 5.19 15.51 5.32 15.39ZM2.60 7.39C2.60 7.57 2.66 7.73 2.79 7.85C2.91 7.98 3.07 8.04 3.25 8.04C3.33 8.04 3.42 8.02 3.50 7.99C3.58 7.97 3.65 7.91 3.71 7.85C3.77 7.80 3.82 7.73 3.85 7.64C3.88 7.57 3.89 7.49 3.89 7.39C3.89 7.31 3.88 7.22 3.85 7.14C3.82 7.06 3.77 6.99 3.71 6.93C3.65 6.87 3.58 6.83 3.50 6.79C3.42 6.76 3.33 6.75 3.25 6.75C3.15 6.75 3.08 6.76 3.00 6.79C2.93 6.82 2.84 6.87 2.79 6.93C2.73 6.99 2.67 7.06 2.65 7.14C2.62 7.22 2.60 7.31 2.60 7.39ZM22.34 3.92L21.71 3.92L20.50 3.92L20.50 4.19C20.50 4.34 20.59 4.42 20.78 4.44L20.92 4.44C20.99 4.44 21.10 4.45 21.24 4.45C21.38 4.45 21.55 4.47 21.71 4.47L21.71 12.22C21.71 12.35 21.71 12.49 21.73 12.63L15.32 4.05C15.27 3.99 15.25 3.95 15.20 3.93C15.16 3.92 15.12 3.91 15.05 3.91L14.70 3.91L13.51 3.91L13.51 4.19C13.51 4.34 13.61 4.42 13.79 4.44L13.93 4.44C14 4.44 14.10 4.45 14.24 4.45C14.38 4.45 14.53 4.47 14.70 4.47L14.70 13.26C14.53 13.26 14.38 13.27 14.24 13.27C14.10 13.27 14 13.29 13.93 13.29L13.79 13.29C13.61 13.30 13.51 13.38 13.51 13.54L13.51 13.82L14.70 13.82L15.32 13.82L16.53 13.82L16.53 13.54C16.53 13.38 16.44 13.30 16.25 13.29L16.11 13.29C16.04 13.29 15.92 13.27 15.78 13.27C15.64 13.27 15.48 13.26 15.32 13.26L15.32 5.49C15.32 5.36 15.32 5.22 15.30 5.08L21.74 13.68C21.81 13.78 21.88 13.82 21.99 13.82L22.34 13.82L22.34 4.47C22.51 4.47 22.65 4.45 22.79 4.45C22.93 4.45 23.04 4.44 23.11 4.44L23.24 4.44C23.42 4.42 23.52 4.34 23.52 4.19L23.52 3.92ZM32.75 3.92L31.56 3.92L31.56 4.19C31.56 4.34 31.65 4.42 31.84 4.44L31.98 4.44C32.05 4.44 32.14 4.45 32.28 4.45C32.42 4.45 32.58 4.47 32.75 4.47L32.75 13.26C32.58 13.26 32.42 13.27 32.28 13.27C32.14 13.27 32.05 13.29 31.98 13.29L31.84 13.29C31.65 13.30 31.57 13.38 31.57 13.54L31.57 13.82L32.75 13.82L38.68 13.82L38.68 13.22L38.68 11.76L38.33 11.76C38.14 11.76 38.05 11.89 38.04 12.11C38.04 12.14 38.02 12.19 38.02 12.29C38.02 12.39 38.02 12.53 38.01 12.74C38.00 12.95 37.98 13.09 37.98 13.22L33.46 13.22L33.46 9.09L37.41 9.09L37.41 8.51L33.46 8.51L33.46 4.51L37.98 4.51C38.01 5.12 38.04 5.50 38.04 5.63C38.05 5.85 38.14 5.96 38.33 5.96L38.68 5.96L38.68 4.51L38.68 3.92ZM54.88 12.21C54.85 12.18 54.81 12.15 54.77 12.15C54.74 12.15 54.73 12.15 54.70 12.17C54.68 12.18 54.66 12.21 54.63 12.22C54.43 12.40 54.22 12.56 54.03 12.70C53.83 12.84 53.62 12.94 53.38 13.03C53.14 13.13 52.89 13.20 52.61 13.24C52.33 13.29 52.02 13.31 51.67 13.31C51.11 13.31 50.57 13.22 50.09 13.01C49.60 12.81 49.20 12.52 48.85 12.14C48.50 11.76 48.20 11.28 48.01 10.74C47.81 10.19 47.71 9.56 47.71 8.86C47.71 8.18 47.81 7.56 48.01 7.01C48.22 6.47 48.50 6.01 48.86 5.61C49.22 5.24 49.66 4.94 50.16 4.73C50.67 4.52 51.21 4.42 51.81 4.42C52.71 4.42 53.54 4.56 54.26 4.89C54.31 5.78 54.35 6.30 54.35 6.41C54.36 6.64 54.45 6.75 54.64 6.75L54.98 6.75L54.98 4.51C53.80 4.03 52.74 3.81 51.81 3.81C51.10 3.81 50.46 3.92 49.85 4.17C49.27 4.42 48.73 4.76 48.31 5.21C47.88 5.66 47.56 6.19 47.32 6.80C47.08 7.42 46.97 8.11 46.97 8.86C46.97 9.63 47.10 10.32 47.32 10.95C47.54 11.58 47.87 12.10 48.27 12.54C48.68 12.99 49.17 13.33 49.74 13.57C50.32 13.80 50.93 13.93 51.62 13.93C52.02 13.93 52.40 13.90 52.75 13.83C53.09 13.76 53.41 13.66 53.70 13.54C53.98 13.41 54.25 13.26 54.49 13.09C54.73 12.91 54.95 12.73 55.16 12.50ZM64.36 3.92L63.17 3.92L63.17 4.19C63.17 4.34 63.27 4.42 63.45 4.44L63.59 4.44C63.66 4.44 63.76 4.45 63.90 4.45C64.04 4.45 64.19 4.47 64.36 4.47L64.36 13.26C64.19 13.26 64.04 13.27 63.90 13.27C63.76 13.27 63.66 13.29 63.59 13.29L63.45 13.29C63.27 13.30 63.18 13.38 63.18 13.54L63.18 13.82L64.36 13.82L70.29 13.82L70.29 13.22L70.29 11.76L69.94 11.76C69.75 11.76 69.66 11.89 69.65 12.11C69.65 12.14 69.64 12.19 69.64 12.29C69.64 12.39 69.64 12.53 69.62 12.74C69.61 12.95 69.59 13.09 69.59 13.22L65.07 13.22L65.07 9.09L69.02 9.09L69.02 8.51L65.07 8.51L65.07 4.51L69.59 4.51C69.62 5.12 69.65 5.50 69.65 5.63C69.66 5.85 69.75 5.96 69.94 5.96L70.29 5.96L70.29 4.51L70.29 3.92ZM84.60 9.91C84.46 9.65 84.27 9.39 84.03 9.21C83.79 9.03 83.54 8.88 83.24 8.75C82.95 8.62 82.63 8.51 82.32 8.41C82.01 8.32 81.70 8.20 81.41 8.11C81.12 7.99 80.85 7.87 80.61 7.71C80.37 7.56 80.19 7.38 80.05 7.15C79.91 6.93 79.83 6.65 79.83 6.31C79.83 6.06 79.88 5.82 79.98 5.59C80.08 5.35 80.22 5.15 80.40 4.97C80.58 4.79 80.81 4.65 81.09 4.55C81.37 4.45 81.68 4.40 82.04 4.40C82.71 4.40 83.33 4.51 83.89 4.75C83.93 5.54 83.96 5.99 83.96 6.06C83.97 6.29 84.06 6.41 84.25 6.41L84.59 6.41L84.59 4.38C83.71 4.00 82.87 3.81 82.04 3.81C81.58 3.81 81.17 3.88 80.81 4.02C80.44 4.16 80.15 4.34 79.91 4.58C79.67 4.82 79.48 5.08 79.35 5.39C79.23 5.70 79.17 6.02 79.17 6.36C79.17 6.78 79.24 7.14 79.38 7.42C79.52 7.70 79.72 7.92 79.95 8.12C80.19 8.32 80.44 8.46 80.74 8.58C81.03 8.71 81.35 8.82 81.66 8.92C81.97 9.02 82.26 9.11 82.57 9.21C82.87 9.31 83.13 9.45 83.37 9.60C83.61 9.76 83.79 9.94 83.93 10.16C84.07 10.39 84.14 10.68 84.14 11.03C84.14 11.35 84.08 11.66 83.97 11.94C83.86 12.22 83.71 12.46 83.50 12.67C83.29 12.88 83.02 13.05 82.71 13.16C82.40 13.29 82.05 13.33 81.66 13.33C80.88 13.33 80.22 13.20 79.69 12.95C79.67 12.75 79.67 12.54 79.66 12.32C79.65 12.10 79.65 11.91 79.63 11.76C79.62 11.61 79.62 11.52 79.62 11.51C79.60 11.28 79.51 11.17 79.31 11.17L78.97 11.17L78.97 13.02L78.97 13.20L78.97 13.38C79.83 13.75 80.71 13.93 81.63 13.93C82.14 13.93 82.59 13.85 82.98 13.69C83.37 13.54 83.71 13.31 83.97 13.05C84.24 12.78 84.46 12.46 84.60 12.10C84.74 11.73 84.81 11.34 84.81 10.92C84.81 10.51 84.74 10.18 84.60 9.91ZM95.89 4.44C96.07 4.42 96.15 4.34 96.15 4.19L96.15 3.91L94.98 3.91L94.26 3.91L93.07 3.91L93.07 4.19C93.07 4.34 93.17 4.42 93.35 4.44L93.49 4.44C93.56 4.44 93.66 4.45 93.80 4.45C93.94 4.45 94.09 4.47 94.26 4.47L94.26 13.26C94.09 13.26 93.94 13.27 93.80 13.27C93.66 13.27 93.56 13.29 93.49 13.29L93.35 13.29C93.17 13.30 93.07 13.38 93.07 13.54L93.07 13.82L94.26 13.82L94.98 13.82L96.15 13.82L96.15 13.54C96.15 13.38 96.07 13.30 95.89 13.29L95.75 13.29C95.68 13.29 95.58 13.27 95.44 13.27C95.30 13.27 95.14 13.26 94.98 13.26L94.98 4.47C95.14 4.47 95.30 4.45 95.44 4.45C95.58 4.45 95.68 4.44 95.75 4.44ZM112.01 3.92L111.82 3.92L104.52 3.92L104.31 3.92L104.22 3.92L104.22 5.96L104.57 5.96C104.76 5.96 104.85 5.85 104.86 5.63C104.86 5.53 104.89 5.17 104.92 4.52L107.81 4.52L107.81 13.26C107.65 13.26 107.51 13.27 107.37 13.27C107.23 13.27 107.11 13.29 107.04 13.29L106.92 13.29C106.74 13.30 106.64 13.38 106.64 13.54L106.64 13.82L107.81 13.82L108.53 13.82L109.72 13.82L109.72 13.54C109.72 13.38 109.62 13.30 109.44 13.29L109.30 13.29C109.23 13.29 109.13 13.27 108.99 13.27C108.85 13.27 108.70 13.26 108.53 13.26L108.53 4.52L111.41 4.52C111.45 5.24 111.47 5.60 111.47 5.63C111.48 5.85 111.58 5.96 111.78 5.96L112.11 5.96L112.11 3.92ZM128.70 13.22L128.24 13.17L124.46 3.91L123.75 3.91L119.95 13.17L119.50 13.22C119.32 13.23 119.24 13.33 119.24 13.50L119.24 13.82L119.69 13.82L119.98 13.82L120.23 13.82L120.33 13.82L121.65 13.82L121.65 13.50C121.65 13.31 121.53 13.23 121.32 13.22C121.31 13.22 121.28 13.20 121.24 13.20C121.20 13.20 121.14 13.19 121.04 13.19C120.95 13.19 120.82 13.19 120.68 13.17L121.66 10.75L121.73 10.57L126.46 10.57L126.53 10.75L127.51 13.17C127.37 13.19 127.26 13.19 127.16 13.19C127.06 13.19 126.99 13.20 126.95 13.20C126.91 13.20 126.88 13.22 126.87 13.22C126.66 13.23 126.55 13.31 126.55 13.50L126.55 13.82L127.86 13.82L127.96 13.82L128.23 13.82L128.51 13.82L128.97 13.82L128.97 13.50C128.97 13.33 128.88 13.23 128.70 13.22ZM123.90 5.22C123.93 5.14 123.97 5.04 124.00 4.94C124.03 4.84 124.07 4.75 124.10 4.63C124.12 4.75 124.17 4.84 124.19 4.94C124.22 5.04 124.26 5.12 124.29 5.21L126.25 10.04L121.95 10.04ZM142.93 9.91C142.79 9.65 142.59 9.39 142.35 9.21C142.11 9.03 141.86 8.88 141.57 8.75C141.27 8.62 140.95 8.51 140.64 8.41C140.34 8.32 140.03 8.20 139.73 8.11C139.44 7.99 139.17 7.87 138.94 7.71C138.70 7.56 138.52 7.38 138.38 7.15C138.24 6.93 138.15 6.65 138.15 6.31C138.15 6.06 138.21 5.82 138.31 5.59C138.40 5.35 138.54 5.15 138.73 4.97C138.91 4.79 139.13 4.65 139.41 4.55C139.69 4.45 140 4.40 140.36 4.40C141.04 4.40 141.65 4.51 142.21 4.75C142.25 5.54 142.28 5.99 142.28 6.06C142.30 6.29 142.38 6.41 142.58 6.41L142.91 6.41L142.91 4.38C142.03 4.00 141.19 3.81 140.36 3.81C139.90 3.81 139.50 3.88 139.13 4.02C138.77 4.16 138.47 4.34 138.24 4.58C138.00 4.82 137.80 5.08 137.68 5.39C137.55 5.70 137.49 6.02 137.49 6.36C137.49 6.78 137.56 7.14 137.70 7.42C137.84 7.70 138.04 7.92 138.28 8.12C138.52 8.32 138.77 8.46 139.06 8.58C139.36 8.71 139.68 8.82 139.99 8.92C140.29 9.02 140.59 9.11 140.90 9.21C141.19 9.31 141.46 9.45 141.69 9.60C141.93 9.76 142.11 9.94 142.25 10.16C142.39 10.39 142.46 10.68 142.46 11.03C142.46 11.35 142.41 11.66 142.30 11.94C142.18 12.22 142.03 12.46 141.82 12.67C141.61 12.88 141.34 13.05 141.04 13.16C140.73 13.29 140.38 13.33 139.99 13.33C139.20 13.33 138.54 13.20 138.01 12.95C138.00 12.75 138.00 12.54 137.98 12.32C137.97 12.10 137.97 11.91 137.96 11.76C137.94 11.61 137.94 11.52 137.94 11.51C137.93 11.28 137.83 11.17 137.63 11.17L137.30 11.17L137.30 13.02L137.30 13.20L137.30 13.38C138.15 13.75 139.03 13.93 139.96 13.93C140.46 13.93 140.91 13.85 141.30 13.69C141.69 13.54 142.03 13.31 142.30 13.05C142.56 12.78 142.79 12.46 142.93 12.10C143.07 11.73 143.14 11.34 143.14 10.92C143.14 10.51 143.07 10.18 142.93 9.91ZM170.77 6.80C170.55 6.19 170.23 5.68 169.81 5.25C169.39 4.82 168.90 4.48 168.32 4.26C167.75 4.03 167.09 3.92 166.39 3.92L162.96 3.92L161.77 3.92L161.77 4.19C161.77 4.34 161.87 4.42 162.05 4.44L162.19 4.44C162.26 4.44 162.36 4.45 162.50 4.45C162.64 4.45 162.79 4.47 162.96 4.47L162.96 13.26C162.79 13.26 162.64 13.27 162.50 13.27C162.36 13.27 162.26 13.29 162.19 13.29L162.05 13.29C161.87 13.30 161.77 13.38 161.77 13.54L161.77 13.82L162.96 13.82L166.39 13.82C167.09 13.82 167.75 13.71 168.32 13.48C168.90 13.26 169.39 12.92 169.81 12.49C170.23 12.05 170.55 11.54 170.77 10.92C171.00 10.30 171.12 9.63 171.12 8.86C171.12 8.11 171.00 7.42 170.77 6.80ZM170.09 10.72C169.89 11.27 169.64 11.72 169.29 12.10C168.94 12.47 168.52 12.75 168.03 12.95C167.54 13.15 166.99 13.24 166.39 13.24L163.67 13.24L163.67 4.49L166.39 4.49C166.99 4.49 167.54 4.59 168.03 4.79C168.52 4.98 168.94 5.26 169.29 5.64C169.64 6.02 169.89 6.47 170.09 7.01C170.28 7.56 170.38 8.18 170.38 8.86C170.38 9.56 170.28 10.18 170.09 10.72ZM188.68 8.86C188.68 8.11 188.55 7.41 188.33 6.79C188.10 6.17 187.78 5.64 187.36 5.19C186.94 4.75 186.45 4.40 185.88 4.16C185.30 3.92 184.65 3.79 183.95 3.79C183.25 3.79 182.62 3.92 182.04 4.16C181.47 4.40 180.96 4.75 180.54 5.19C180.12 5.64 179.80 6.17 179.58 6.79C179.35 7.41 179.23 8.11 179.23 8.86C179.23 9.63 179.35 10.33 179.58 10.95C179.80 11.56 180.12 12.10 180.54 12.54C180.96 12.99 181.47 13.33 182.04 13.57C182.62 13.80 183.25 13.93 183.95 13.93C184.65 13.93 185.30 13.80 185.88 13.57C186.45 13.33 186.94 12.99 187.36 12.54C187.78 12.10 188.10 11.56 188.33 10.95C188.55 10.33 188.68 9.63 188.68 8.86ZM187.92 8.86C187.92 9.56 187.84 10.18 187.64 10.72C187.45 11.27 187.18 11.75 186.83 12.12C186.48 12.50 186.06 12.81 185.57 13.01C185.08 13.20 184.55 13.30 183.95 13.30C183.36 13.30 182.83 13.20 182.34 13.01C181.85 12.81 181.43 12.50 181.08 12.12C180.73 11.75 180.45 11.27 180.25 10.72C180.05 10.18 179.97 9.56 179.97 8.86C179.97 8.18 180.05 7.55 180.25 7.00C180.45 6.45 180.73 5.98 181.08 5.60C181.43 5.22 181.85 4.91 182.34 4.72C182.83 4.52 183.36 4.41 183.95 4.41C184.55 4.41 185.08 4.52 185.57 4.72C186.06 4.91 186.48 5.22 186.83 5.60C187.18 5.98 187.45 6.45 187.64 7.00C187.84 7.55 187.92 8.18 187.92 8.86ZM204.68 12.21C204.65 12.18 204.61 12.15 204.57 12.15C204.54 12.15 204.53 12.15 204.50 12.17C204.48 12.18 204.46 12.21 204.43 12.22C204.23 12.40 204.02 12.56 203.83 12.70C203.63 12.84 203.42 12.94 203.18 13.03C202.94 13.13 202.69 13.20 202.41 13.24C202.13 13.29 201.82 13.31 201.47 13.31C200.91 13.31 200.37 13.22 199.89 13.01C199.40 12.81 199.00 12.52 198.65 12.14C198.30 11.76 198.00 11.28 197.81 10.74C197.61 10.19 197.51 9.56 197.51 8.86C197.51 8.18 197.61 7.56 197.81 7.01C198.02 6.47 198.30 6.01 198.66 5.61C199.02 5.24 199.46 4.94 199.96 4.73C200.47 4.52 201.01 4.42 201.61 4.42C202.51 4.42 203.34 4.56 204.06 4.89C204.11 5.78 204.15 6.30 204.15 6.41C204.16 6.64 204.25 6.75 204.44 6.75L204.78 6.75L204.78 4.51C203.60 4.03 202.54 3.81 201.61 3.81C200.90 3.81 200.26 3.92 199.65 4.17C199.07 4.42 198.53 4.76 198.11 5.21C197.68 5.66 197.36 6.19 197.12 6.80C196.88 7.42 196.77 8.11 196.77 8.86C196.77 9.63 196.90 10.32 197.12 10.95C197.34 11.58 197.67 12.10 198.07 12.54C198.48 12.99 198.97 13.33 199.54 13.57C200.12 13.80 200.73 13.93 201.42 13.93C201.82 13.93 202.20 13.90 202.55 13.83C202.89 13.76 203.21 13.66 203.50 13.54C203.78 13.41 204.05 13.26 204.29 13.09C204.53 12.91 204.75 12.73 204.96 12.50ZM214.16 3.92L212.97 3.92L212.97 4.19C212.97 4.34 213.07 4.42 213.25 4.44L213.39 4.44C213.46 4.44 213.56 4.45 213.70 4.45C213.84 4.45 213.99 4.47 214.16 4.47L214.16 13.26C213.99 13.26 213.84 13.27 213.70 13.27C213.56 13.27 213.46 13.29 213.39 13.29L213.25 13.29C213.07 13.30 212.98 13.38 212.98 13.54L212.98 13.82L214.16 13.82L220.09 13.82L220.09 13.22L220.09 11.76L219.74 11.76C219.55 11.76 219.46 11.89 219.45 12.11C219.45 12.14 219.44 12.19 219.44 12.29C219.44 12.39 219.44 12.53 219.42 12.74C219.41 12.95 219.39 13.09 219.39 13.22L214.87 13.22L214.87 9.09L218.82 9.09L218.82 8.51L214.87 8.51L214.87 4.51L219.39 4.51C219.42 5.12 219.45 5.50 219.45 5.63C219.46 5.85 219.55 5.96 219.74 5.96L220.09 5.96L220.09 4.51L220.09 3.92ZM237.51 3.92L236.88 3.92L235.66 3.92L235.66 4.19C235.66 4.34 235.76 4.42 235.94 4.44L236.08 4.44C236.15 4.44 236.26 4.45 236.40 4.45C236.54 4.45 236.71 4.47 236.88 4.47L236.88 12.22C236.88 12.35 236.88 12.49 236.89 12.63L230.48 4.05C230.44 3.99 230.41 3.95 230.37 3.93C230.33 3.92 230.29 3.91 230.22 3.91L229.87 3.91L228.68 3.91L228.68 4.19C228.68 4.34 228.77 4.42 228.96 4.44L229.10 4.44C229.17 4.44 229.26 4.45 229.40 4.45C229.54 4.45 229.70 4.47 229.87 4.47L229.87 13.26C229.70 13.26 229.54 13.27 229.40 13.27C229.26 13.27 229.17 13.29 229.10 13.29L228.96 13.29C228.77 13.30 228.68 13.38 228.68 13.54L228.68 13.82L229.87 13.82L230.48 13.82L231.70 13.82L231.70 13.54C231.70 13.38 231.60 13.30 231.42 13.29L231.28 13.29C231.21 13.29 231.08 13.27 230.94 13.27C230.80 13.27 230.65 13.26 230.48 13.26L230.48 5.49C230.48 5.36 230.48 5.22 230.47 5.08L236.91 13.68C236.98 13.78 237.05 13.82 237.16 13.82L237.51 13.82L237.51 4.47C237.68 4.47 237.82 4.45 237.96 4.45C238.10 4.45 238.21 4.44 238.28 4.44L238.41 4.44C238.59 4.42 238.69 4.34 238.69 4.19L238.69 3.92ZM254.24 3.92L254.04 3.92L246.75 3.92L246.54 3.92L246.44 3.92L246.44 5.96L246.79 5.96C246.99 5.96 247.07 5.85 247.09 5.63C247.09 5.53 247.11 5.17 247.14 4.52L250.04 4.52L250.04 13.26C249.87 13.26 249.73 13.27 249.59 13.27C249.45 13.27 249.34 13.29 249.27 13.29L249.14 13.29C248.96 13.30 248.86 13.38 248.86 13.54L248.86 13.82L250.04 13.82L250.75 13.82L251.94 13.82L251.94 13.54C251.94 13.38 251.85 13.30 251.66 13.29L251.52 13.29C251.45 13.29 251.36 13.27 251.22 13.27C251.08 13.27 250.92 13.26 250.75 13.26L250.75 4.52L253.64 4.52C253.68 5.24 253.69 5.60 253.69 5.63C253.71 5.85 253.81 5.96 254.00 5.96L254.34 5.96L254.34 3.92ZM263.63 3.92L262.44 3.92L262.44 4.19C262.44 4.34 262.54 4.42 262.72 4.44L262.86 4.44C262.93 4.44 263.03 4.45 263.17 4.45C263.31 4.45 263.47 4.47 263.63 4.47L263.63 13.26C263.47 13.26 263.31 13.27 263.17 13.27C263.03 13.27 262.93 13.29 262.86 13.29L262.72 13.29C262.54 13.30 262.46 13.38 262.46 13.54L262.46 13.82L263.63 13.82L269.57 13.82L269.57 13.22L269.57 11.76L269.22 11.76C269.02 11.76 268.94 11.89 268.93 12.11C268.93 12.14 268.91 12.19 268.91 12.29C268.91 12.39 268.91 12.53 268.90 12.74C268.88 12.95 268.87 13.09 268.87 13.22L264.35 13.22L264.35 9.09L268.30 9.09L268.30 8.51L264.35 8.51L264.35 4.51L268.87 4.51C268.90 5.12 268.93 5.50 268.93 5.63C268.94 5.85 269.02 5.96 269.22 5.96L269.57 5.96L269.57 4.51L269.57 3.92ZM283.88 9.91C283.74 9.65 283.54 9.39 283.30 9.21C283.07 9.03 282.81 8.88 282.52 8.75C282.23 8.62 281.90 8.51 281.60 8.41C281.29 8.32 280.98 8.20 280.69 8.11C280.39 7.99 280.13 7.87 279.89 7.71C279.65 7.56 279.47 7.38 279.33 7.15C279.19 6.93 279.10 6.65 279.10 6.31C279.10 6.06 279.16 5.82 279.26 5.59C279.36 5.35 279.50 5.15 279.68 4.97C279.86 4.79 280.08 4.65 280.36 4.55C280.64 4.45 280.95 4.40 281.32 4.40C281.99 4.40 282.60 4.51 283.16 4.75C283.21 5.54 283.23 5.99 283.23 6.06C283.25 6.29 283.33 6.41 283.53 6.41L283.86 6.41L283.86 4.38C282.98 4.00 282.14 3.81 281.32 3.81C280.85 3.81 280.45 3.88 280.08 4.02C279.72 4.16 279.43 4.34 279.19 4.58C278.95 4.82 278.75 5.08 278.63 5.39C278.50 5.70 278.45 6.02 278.45 6.36C278.45 6.78 278.52 7.14 278.66 7.42C278.80 7.70 278.99 7.92 279.23 8.12C279.47 8.32 279.72 8.46 280.01 8.58C280.31 8.71 280.63 8.82 280.94 8.92C281.25 9.02 281.54 9.11 281.85 9.21C282.14 9.31 282.41 9.45 282.65 9.60C282.88 9.76 283.07 9.94 283.21 10.16C283.35 10.39 283.42 10.68 283.42 11.03C283.42 11.35 283.36 11.66 283.25 11.94C283.14 12.22 282.98 12.46 282.77 12.67C282.56 12.88 282.30 13.05 281.99 13.16C281.68 13.29 281.33 13.33 280.94 13.33C280.15 13.33 279.50 13.20 278.96 12.95C278.95 12.75 278.95 12.54 278.94 12.32C278.92 12.10 278.92 11.91 278.91 11.76C278.89 11.61 278.89 11.52 278.89 11.51C278.88 11.28 278.78 11.17 278.59 11.17L278.25 11.17L278.25 13.02L278.25 13.20L278.25 13.38C279.10 13.75 279.99 13.93 280.91 13.93C281.41 13.93 281.86 13.85 282.25 13.69C282.65 13.54 282.98 13.31 283.25 13.05C283.51 12.78 283.74 12.46 283.88 12.10C284.02 11.73 284.09 11.34 284.09 10.92C284.09 10.51 284.02 10.18 283.88 9.91ZM310.45 12.21C310.42 12.18 310.38 12.15 310.34 12.15C310.31 12.15 310.30 12.15 310.27 12.17C310.25 12.18 310.23 12.21 310.20 12.22C310.00 12.40 309.79 12.56 309.60 12.70C309.40 12.84 309.19 12.94 308.95 13.03C308.71 13.13 308.46 13.20 308.18 13.24C307.90 13.29 307.59 13.31 307.24 13.31C306.68 13.31 306.14 13.22 305.66 13.01C305.17 12.81 304.77 12.52 304.42 12.14C304.07 11.76 303.77 11.28 303.58 10.74C303.38 10.19 303.28 9.56 303.28 8.86C303.28 8.18 303.38 7.56 303.58 7.01C303.79 6.47 304.07 6.01 304.43 5.61C304.79 5.24 305.23 4.94 305.73 4.73C306.24 4.52 306.78 4.42 307.38 4.42C308.28 4.42 309.11 4.56 309.83 4.89C309.88 5.78 309.92 6.30 309.92 6.41C309.93 6.64 310.02 6.75 310.21 6.75L310.55 6.75L310.55 4.51C309.37 4.03 308.31 3.81 307.38 3.81C306.67 3.81 306.03 3.92 305.42 4.17C304.84 4.42 304.30 4.76 303.88 5.21C303.45 5.66 303.13 6.19 302.89 6.80C302.65 7.42 302.54 8.11 302.54 8.86C302.54 9.63 302.67 10.32 302.89 10.95C303.11 11.58 303.44 12.10 303.84 12.54C304.25 12.99 304.74 13.33 305.31 13.57C305.89 13.80 306.50 13.93 307.19 13.93C307.59 13.93 307.97 13.90 308.32 13.83C308.66 13.76 308.98 13.66 309.27 13.54C309.55 13.41 309.82 13.26 310.06 13.09C310.30 12.91 310.52 12.73 310.73 12.50ZM328.03 13.22L327.57 13.17L323.79 3.91L323.08 3.91L319.28 13.17L318.84 13.22C318.65 13.23 318.57 13.33 318.57 13.50L318.57 13.82L319.02 13.82L319.31 13.82L319.56 13.82L319.66 13.82L320.98 13.82L320.98 13.50C320.98 13.31 320.87 13.23 320.66 13.22C320.64 13.22 320.61 13.20 320.57 13.20C320.53 13.20 320.47 13.19 320.38 13.19C320.28 13.19 320.15 13.19 320.01 13.17L320.99 10.75L321.06 10.57L325.79 10.57L325.86 10.75L326.84 13.17C326.70 13.19 326.59 13.19 326.49 13.19C326.40 13.19 326.33 13.20 326.28 13.20C326.24 13.20 326.21 13.22 326.20 13.22C325.99 13.23 325.88 13.31 325.88 13.50L325.88 13.82L327.19 13.82L327.29 13.82L327.56 13.82L327.84 13.82L328.30 13.82L328.30 13.50C328.30 13.33 328.22 13.23 328.03 13.22ZM323.23 5.22C323.26 5.14 323.30 5.04 323.33 4.94C323.36 4.84 323.40 4.75 323.43 4.63C323.46 4.75 323.50 4.84 323.53 4.94C323.55 5.04 323.60 5.12 323.62 5.21L325.58 10.04L321.29 10.04ZM342.76 4.68C342.17 4.17 341.29 3.92 340.13 3.92L337.72 3.92L336.53 3.92L336.53 4.19C336.53 4.34 336.63 4.42 336.81 4.44L336.95 4.44C337.02 4.44 337.12 4.45 337.26 4.45C337.40 4.45 337.55 4.47 337.72 4.47L337.72 13.26C337.55 13.26 337.40 13.27 337.26 13.27C337.12 13.27 337.02 13.29 336.95 13.29L336.81 13.29C336.63 13.30 336.53 13.38 336.53 13.54L336.53 13.82L337.72 13.82L338.44 13.82L339.61 13.82L339.61 13.54C339.61 13.38 339.51 13.30 339.33 13.29L339.21 13.29C339.14 13.29 339.02 13.27 338.88 13.27C338.74 13.27 338.60 13.26 338.44 13.26L338.44 9.83L340.13 9.83C340.68 9.83 341.17 9.74 341.60 9.60C342.03 9.45 342.40 9.25 342.71 8.99C343.01 8.72 343.25 8.41 343.41 8.05C343.57 7.69 343.64 7.29 343.64 6.86C343.64 5.92 343.35 5.18 342.76 4.68ZM342.73 7.81C342.61 8.11 342.43 8.36 342.19 8.57C341.95 8.78 341.66 8.95 341.31 9.07C340.96 9.20 340.56 9.25 340.13 9.25L338.44 9.25L338.44 4.48L340.13 4.48C341.05 4.48 341.75 4.69 342.23 5.10C342.69 5.50 342.93 6.09 342.93 6.85C342.93 7.20 342.86 7.52 342.73 7.81ZM360.30 13.22L359.84 13.17L356.06 3.91L355.35 3.91L351.55 13.17L351.11 13.22C350.92 13.23 350.84 13.33 350.84 13.50L350.84 13.82L351.29 13.82L351.58 13.82L351.83 13.82L351.93 13.82L353.25 13.82L353.25 13.50C353.25 13.31 353.14 13.23 352.93 13.22C352.91 13.22 352.88 13.20 352.84 13.20C352.80 13.20 352.74 13.19 352.65 13.19C352.55 13.19 352.42 13.19 352.28 13.17L353.26 10.75L353.33 10.57L358.06 10.57L358.13 10.75L359.11 13.17C358.97 13.19 358.86 13.19 358.76 13.19C358.67 13.19 358.60 13.20 358.55 13.20C358.51 13.20 358.48 13.22 358.47 13.22C358.26 13.23 358.15 13.31 358.15 13.50L358.15 13.82L359.46 13.82L359.56 13.82L359.83 13.82L360.11 13.82L360.57 13.82L360.57 13.50C360.57 13.33 360.49 13.23 360.30 13.22ZM355.50 5.22C355.53 5.14 355.57 5.04 355.60 4.94C355.63 4.84 355.67 4.75 355.70 4.63C355.73 4.75 355.77 4.84 355.80 4.94C355.82 5.04 355.87 5.12 355.89 5.21L357.85 10.04L353.56 10.04ZM375.94 12.21C375.91 12.18 375.87 12.15 375.83 12.15C375.80 12.15 375.79 12.15 375.76 12.17C375.75 12.18 375.72 12.21 375.69 12.22C375.49 12.40 375.28 12.56 375.09 12.70C374.89 12.84 374.68 12.94 374.44 13.03C374.21 13.13 373.95 13.20 373.67 13.24C373.39 13.29 373.09 13.31 372.74 13.31C372.18 13.31 371.63 13.22 371.15 13.01C370.66 12.81 370.26 12.52 369.91 12.14C369.56 11.76 369.26 11.28 369.07 10.74C368.87 10.19 368.77 9.56 368.77 8.86C368.77 8.18 368.87 7.56 369.07 7.01C369.28 6.47 369.56 6.01 369.92 5.61C370.29 5.24 370.72 4.94 371.22 4.73C371.73 4.52 372.27 4.42 372.88 4.42C373.77 4.42 374.60 4.56 375.33 4.89C375.37 5.78 375.41 6.30 375.41 6.41C375.42 6.64 375.51 6.75 375.70 6.75L376.04 6.75L376.04 4.51C374.86 4.03 373.80 3.81 372.88 3.81C372.16 3.81 371.52 3.92 370.92 4.17C370.33 4.42 369.80 4.76 369.38 5.21C368.94 5.66 368.62 6.19 368.38 6.80C368.14 7.42 368.03 8.11 368.03 8.86C368.03 9.63 368.16 10.32 368.38 10.95C368.61 11.58 368.93 12.10 369.33 12.54C369.74 12.99 370.23 13.33 370.80 13.57C371.38 13.80 371.99 13.93 372.68 13.93C373.09 13.93 373.46 13.90 373.81 13.83C374.15 13.76 374.47 13.66 374.77 13.54C375.05 13.41 375.31 13.26 375.55 13.09C375.79 12.91 376.01 12.73 376.22 12.50ZM387.04 4.44C387.23 4.42 387.31 4.34 387.31 4.19L387.31 3.91L386.13 3.91L385.42 3.91L384.23 3.91L384.23 4.19C384.23 4.34 384.33 4.42 384.51 4.44L384.65 4.44C384.72 4.44 384.82 4.45 384.96 4.45C385.10 4.45 385.25 4.47 385.42 4.47L385.42 13.26C385.25 13.26 385.10 13.27 384.96 13.27C384.82 13.27 384.72 13.29 384.65 13.29L384.51 13.29C384.33 13.30 384.23 13.38 384.23 13.54L384.23 13.82L385.42 13.82L386.13 13.82L387.31 13.82L387.31 13.54C387.31 13.38 387.23 13.30 387.04 13.29L386.90 13.29C386.83 13.29 386.74 13.27 386.60 13.27C386.46 13.27 386.30 13.26 386.13 13.26L386.13 4.47C386.30 4.47 386.46 4.45 386.60 4.45C386.74 4.45 386.83 4.44 386.90 4.44ZM403.17 3.92L402.98 3.92L395.68 3.92L395.47 3.92L395.37 3.92L395.37 5.96L395.72 5.96C395.92 5.96 396.00 5.85 396.02 5.63C396.02 5.53 396.05 5.17 396.07 4.52L398.97 4.52L398.97 13.26C398.80 13.26 398.66 13.27 398.52 13.27C398.38 13.27 398.27 13.29 398.20 13.29L398.08 13.29C397.89 13.30 397.80 13.38 397.80 13.54L397.80 13.82L398.97 13.82L399.69 13.82L400.88 13.82L400.88 13.54C400.88 13.38 400.78 13.30 400.60 13.29L400.46 13.29C400.39 13.29 400.29 13.27 400.15 13.27C400.01 13.27 399.85 13.26 399.69 13.26L399.69 4.52L402.57 4.52C402.61 5.24 402.63 5.60 402.63 5.63C402.64 5.85 402.74 5.96 402.93 5.96L403.27 5.96L403.27 3.92ZM419.86 13.22L419.40 13.17L415.62 3.91L414.90 3.91L411.11 13.17L410.66 13.22C410.48 13.23 410.40 13.33 410.40 13.50L410.40 13.82L410.84 13.82L411.14 13.82L411.39 13.82L411.49 13.82L412.80 13.82L412.80 13.50C412.80 13.31 412.69 13.23 412.48 13.22C412.47 13.22 412.44 13.20 412.40 13.20C412.36 13.20 412.30 13.19 412.20 13.19C412.10 13.19 411.98 13.19 411.84 13.17L412.82 10.75L412.89 10.57L417.62 10.57L417.69 10.75L418.67 13.17C418.53 13.19 418.42 13.19 418.32 13.19C418.22 13.19 418.15 13.20 418.11 13.20C418.07 13.20 418.04 13.22 418.03 13.22C417.82 13.23 417.70 13.31 417.70 13.50L417.70 13.82L419.02 13.82L419.12 13.82L419.38 13.82L419.66 13.82L420.13 13.82L420.13 13.50C420.13 13.33 420.04 13.23 419.86 13.22ZM415.06 5.22C415.09 5.14 415.13 5.04 415.16 4.94C415.18 4.84 415.23 4.75 415.25 4.63C415.28 4.75 415.32 4.84 415.35 4.94C415.38 5.04 415.42 5.12 415.45 5.21L417.41 10.04L413.11 10.04ZM437.36 6.80C437.14 6.19 436.81 5.68 436.39 5.25C435.97 4.82 435.48 4.48 434.91 4.26C434.34 4.03 433.68 3.92 432.98 3.92L429.55 3.92L428.36 3.92L428.36 4.19C428.36 4.34 428.46 4.42 428.64 4.44L428.78 4.44C428.85 4.44 428.95 4.45 429.09 4.45C429.23 4.45 429.38 4.47 429.55 4.47L429.55 13.26C429.38 13.26 429.23 13.27 429.09 13.27C428.95 13.27 428.85 13.29 428.78 13.29L428.64 13.29C428.46 13.30 428.36 13.38 428.36 13.54L428.36 13.82L429.55 13.82L432.98 13.82C433.68 13.82 434.34 13.71 434.91 13.48C435.48 13.26 435.97 12.92 436.39 12.49C436.81 12.05 437.14 11.54 437.36 10.92C437.58 10.30 437.71 9.63 437.71 8.86C437.71 8.11 437.58 7.42 437.36 6.80ZM436.67 10.72C436.48 11.27 436.23 11.72 435.88 12.10C435.53 12.47 435.11 12.75 434.62 12.95C434.13 13.15 433.58 13.24 432.98 13.24L430.26 13.24L430.26 4.49L432.98 4.49C433.58 4.49 434.13 4.59 434.62 4.79C435.11 4.98 435.53 5.26 435.88 5.64C436.23 6.02 436.48 6.47 436.67 7.01C436.87 7.56 436.97 8.18 436.97 8.86C436.97 9.56 436.87 10.18 436.67 10.72ZM455.27 8.86C455.27 8.11 455.14 7.41 454.92 6.79C454.69 6.17 454.37 5.64 453.95 5.19C453.53 4.75 453.04 4.40 452.47 4.16C451.89 3.92 451.23 3.79 450.53 3.79C449.83 3.79 449.20 3.92 448.63 4.16C448.06 4.40 447.55 4.75 447.13 5.19C446.71 5.64 446.39 6.17 446.17 6.79C445.94 7.41 445.82 8.11 445.82 8.86C445.82 9.63 445.94 10.33 446.17 10.95C446.39 11.56 446.71 12.10 447.13 12.54C447.55 12.99 448.06 13.33 448.63 13.57C449.20 13.80 449.83 13.93 450.53 13.93C451.23 13.93 451.89 13.80 452.47 13.57C453.04 13.33 453.53 12.99 453.95 12.54C454.37 12.10 454.69 11.56 454.92 10.95C455.14 10.33 455.27 9.63 455.27 8.86ZM454.51 8.86C454.51 9.56 454.43 10.18 454.23 10.72C454.03 11.27 453.77 11.75 453.42 12.12C453.07 12.50 452.65 12.81 452.16 13.01C451.67 13.20 451.14 13.30 450.53 13.30C449.95 13.30 449.41 13.20 448.92 13.01C448.43 12.81 448.01 12.50 447.66 12.12C447.31 11.75 447.03 11.27 446.84 10.72C446.64 10.18 446.56 9.56 446.56 8.86C446.56 8.18 446.64 7.55 446.84 7.00C447.03 6.45 447.31 5.98 447.66 5.60C448.01 5.22 448.43 4.91 448.92 4.72C449.41 4.52 449.95 4.41 450.53 4.41C451.14 4.41 451.67 4.52 452.16 4.72C452.65 4.91 453.07 5.22 453.42 5.60C453.77 5.98 454.03 6.45 454.23 7.00C454.43 7.55 454.51 8.18 454.51 8.86ZM469.27 9.91C469.13 9.65 468.93 9.39 468.69 9.21C468.45 9.03 468.20 8.88 467.91 8.75C467.61 8.62 467.29 8.51 466.98 8.41C466.68 8.32 466.37 8.20 466.07 8.11C465.78 7.99 465.51 7.87 465.28 7.71C465.04 7.56 464.86 7.38 464.72 7.15C464.58 6.93 464.49 6.65 464.49 6.31C464.49 6.06 464.55 5.82 464.65 5.59C464.74 5.35 464.88 5.15 465.07 4.97C465.25 4.79 465.47 4.65 465.75 4.55C466.03 4.45 466.34 4.40 466.70 4.40C467.38 4.40 467.99 4.51 468.55 4.75C468.59 5.54 468.62 5.99 468.62 6.06C468.64 6.29 468.72 6.41 468.92 6.41L469.25 6.41L469.25 4.38C468.37 4.00 467.53 3.81 466.70 3.81C466.24 3.81 465.84 3.88 465.47 4.02C465.11 4.16 464.81 4.34 464.58 4.58C464.34 4.82 464.14 5.08 464.02 5.39C463.89 5.70 463.83 6.02 463.83 6.36C463.83 6.78 463.90 7.14 464.04 7.42C464.18 7.70 464.38 7.92 464.62 8.12C464.86 8.32 465.11 8.46 465.40 8.58C465.70 8.71 466.02 8.82 466.33 8.92C466.63 9.02 466.93 9.11 467.24 9.21C467.53 9.31 467.80 9.45 468.03 9.60C468.27 9.76 468.45 9.94 468.59 10.16C468.73 10.39 468.80 10.68 468.80 11.03C468.80 11.35 468.75 11.66 468.64 11.94C468.52 12.22 468.37 12.46 468.16 12.67C467.95 12.88 467.68 13.05 467.38 13.16C467.07 13.29 466.72 13.33 466.33 13.33C465.54 13.33 464.88 13.20 464.35 12.95C464.34 12.75 464.34 12.54 464.32 12.32C464.31 12.10 464.31 11.91 464.30 11.76C464.28 11.61 464.28 11.52 464.28 11.51C464.27 11.28 464.17 11.17 463.97 11.17L463.64 11.17L463.64 13.02L463.64 13.20L463.64 13.38C464.49 13.75 465.37 13.93 466.30 13.93C466.80 13.93 467.25 13.85 467.64 13.69C468.03 13.54 468.37 13.31 468.64 13.05C468.90 12.78 469.13 12.46 469.27 12.10C469.41 11.73 469.48 11.34 469.48 10.92C469.48 10.51 469.41 10.18 469.27 9.91ZM477.48 4.77L477.65 5.05C477.68 5.11 477.75 5.14 477.82 5.14C477.85 5.14 477.90 5.10 477.99 5.01C478.07 4.93 478.20 4.84 478.35 4.75C478.51 4.65 478.70 4.55 478.93 4.47C479.15 4.38 479.42 4.35 479.72 4.35C479.96 4.35 480.20 4.38 480.42 4.45C480.65 4.52 480.83 4.63 481.00 4.77C481.17 4.91 481.31 5.08 481.40 5.28C481.50 5.47 481.54 5.70 481.54 5.95C481.54 6.26 481.49 6.54 481.38 6.76C481.26 6.99 481.12 7.18 480.96 7.36C480.79 7.53 480.62 7.70 480.42 7.84C480.23 7.98 480.05 8.12 479.88 8.26C479.71 8.40 479.58 8.54 479.47 8.68C479.36 8.82 479.30 8.99 479.30 9.18L479.30 9.21L479.33 10.42L479.78 10.42L479.86 9.27C479.88 9.11 479.95 8.96 480.06 8.83C480.17 8.71 480.33 8.57 480.49 8.44C480.66 8.32 480.84 8.18 481.04 8.02C481.24 7.88 481.43 7.71 481.60 7.52C481.77 7.32 481.89 7.10 482.01 6.85C482.12 6.59 482.17 6.27 482.17 5.92C482.17 5.60 482.10 5.31 481.98 5.04C481.85 4.77 481.68 4.55 481.46 4.37C481.24 4.19 481.00 4.05 480.70 3.95C480.41 3.85 480.10 3.79 479.78 3.79C479.51 3.79 479.28 3.82 479.05 3.88C478.83 3.93 478.63 4.02 478.44 4.10C478.24 4.19 478.06 4.30 477.90 4.41C477.75 4.52 477.61 4.65 477.48 4.77ZM478.90 13.29C478.90 13.47 478.95 13.61 479.08 13.73C479.21 13.86 479.36 13.93 479.54 13.93C479.63 13.93 479.71 13.90 479.79 13.87C479.88 13.85 479.95 13.79 480.00 13.73C480.06 13.68 480.12 13.62 480.14 13.54C480.17 13.45 480.19 13.38 480.19 13.29C480.19 13.20 480.17 13.12 480.14 13.03C480.12 12.95 480.06 12.88 480.00 12.82C479.95 12.77 479.88 12.71 479.79 12.68C479.71 12.66 479.63 12.63 479.54 12.63C479.44 12.63 479.37 12.66 479.29 12.68C479.22 12.71 479.14 12.77 479.08 12.82C479.02 12.88 478.97 12.95 478.94 13.03C478.91 13.12 478.90 13.20 478.90 13.29Z"></path></g></svg>