<svg data-v-423bf9ae="" xmlns="http://www.w3.org/2000/svg" viewBox="0 0 477.63443646221685 60" class="font"><!----><!----><!----><g data-v-423bf9ae="" id="e328fca8-dd1d-4bc1-88d3-d5b87cde288b" fill="white" transform="matrix(5.376344159530915,0,0,5.376344159530915,-6.075273212805257,-15.053762675066757)"><path d="M2.01 13.78L3.78 3.74L1.13 3.74L1.30 2.80L7.60 2.80L7.44 3.74L4.81 3.74L3.04 13.78L2.01 13.78ZM10.27 5.48L10.27 5.48Q10.93 5.48 11.43 5.70L11.43 5.70L11.43 5.70Q11.94 5.92 12.21 6.35L12.21 6.35L12.21 6.35Q12.49 6.79 12.49 7.40L12.49 7.40L12.49 7.40Q12.49 7.67 12.44 7.93L12.44 7.93L11.41 13.78L10.55 13.78L10.73 12.48L10.66 12.48L10.66 12.48Q10.19 13.15 9.52 13.56L9.52 13.56L9.52 13.56Q8.85 13.96 8.22 13.96L8.22 13.96L8.22 13.96Q7.66 13.96 7.25 13.73L7.25 13.73L7.25 13.73Q6.84 13.51 6.61 13.11L6.61 13.11L6.61 13.11Q6.39 12.71 6.39 12.22L6.39 12.22L6.39 12.22Q6.39 12.05 6.43 11.83L6.43 11.83L6.43 11.83Q6.58 10.99 7.02 10.41L7.02 10.41L7.02 10.41Q7.46 9.83 8.24 9.37L8.24 9.37L8.24 9.37Q9.63 8.65 11.42 8.46L11.42 8.46L11.50 8.00L11.50 8.00Q11.55 7.74 11.55 7.49L11.55 7.49L11.55 7.49Q11.55 6.91 11.24 6.66L11.24 6.66L11.24 6.66Q10.93 6.41 10.31 6.41L10.31 6.41L10.31 6.41Q9.60 6.41 9.06 6.73L9.06 6.73L9.06 6.73Q8.52 7.05 8.07 7.70L8.07 7.70L7.39 7.10L7.39 7.10Q7.98 6.27 8.69 5.87L8.69 5.87L8.69 5.87Q9.40 5.48 10.27 5.48L10.27 5.48ZM8.41 12.99L8.41 12.99Q9.16 12.99 9.79 12.50L9.79 12.50L9.79 12.50Q10.42 12.01 10.93 11.24L10.93 11.24L11.27 9.35L11.27 9.35Q10.52 9.43 9.84 9.66L9.84 9.66L9.84 9.66Q9.15 9.88 8.65 10.23L8.65 10.23L8.65 10.23Q8.19 10.51 7.89 10.91L7.89 10.91L7.89 10.91Q7.58 11.32 7.49 11.83L7.49 11.83L7.49 11.83Q7.46 12.02 7.46 12.09L7.46 12.09L7.46 12.09Q7.46 12.51 7.72 12.75L7.72 12.75L7.72 12.75Q7.98 12.99 8.41 12.99L8.41 12.99ZM13.30 13.78L15.23 2.80L16.22 2.80L14.29 13.78L13.30 13.78ZM20.17 5.48L20.17 5.48Q22.46 5.48 22.46 8.09L22.46 8.09L22.46 8.09Q22.46 8.74 22.29 9.70L22.29 9.70L22.29 9.70Q22.24 10.01 22.20 10.14L22.20 10.14L17.42 10.14L17.42 10.14Q17.37 10.55 17.37 10.84L17.37 10.84L17.37 10.84Q17.37 11.81 17.78 12.41L17.78 12.41L17.78 12.41Q18.18 13.02 19.04 13.02L19.04 13.02L19.04 13.02Q20.07 13.02 20.99 12.20L20.99 12.20L21.51 12.92L21.51 12.92Q20.88 13.47 20.26 13.71L20.26 13.71L20.26 13.71Q19.64 13.94 19.00 13.94L19.00 13.94L19.00 13.94Q18.11 13.94 17.53 13.52L17.53 13.52L17.53 13.52Q16.95 13.10 16.68 12.40L16.68 12.40L16.68 12.40Q16.41 11.69 16.41 10.80L16.41 10.80L16.41 10.80Q16.41 10.26 16.52 9.63L16.52 9.63L16.52 9.63Q16.71 8.52 17.15 7.58L17.15 7.58L17.15 7.58Q17.60 6.65 18.35 6.06L18.35 6.06L18.35 6.06Q19.11 5.48 20.17 5.48L20.17 5.48ZM20.10 6.40L20.10 6.40Q19.06 6.40 18.45 7.21L18.45 7.21L18.45 7.21Q17.84 8.02 17.58 9.26L17.58 9.26L21.46 9.26L21.46 9.26Q21.58 8.48 21.58 7.99L21.58 7.99L21.58 7.99Q21.58 7.19 21.25 6.79L21.25 6.79L21.25 6.79Q20.91 6.40 20.10 6.40L20.10 6.40ZM23.03 13.78L24.47 5.63L25.47 5.63L25.24 6.87L25.29 6.87L25.29 6.87Q25.71 6.21 26.24 5.84L26.24 5.84L26.24 5.84Q26.76 5.48 27.38 5.48L27.38 5.48L27.38 5.48Q28.25 5.48 28.73 6.00L28.73 6.00L28.73 6.00Q29.20 6.53 29.20 7.46L29.20 7.46L29.20 7.46Q29.20 7.83 29.13 8.22L29.13 8.22L28.16 13.78L27.17 13.78L28.14 8.24L28.14 8.24Q28.22 7.81 28.22 7.52L28.22 7.52L28.22 7.52Q28.22 6.92 27.96 6.67L27.96 6.67L27.96 6.67Q27.70 6.41 27.19 6.41L27.19 6.41L27.19 6.41Q26.65 6.41 26.17 6.74L26.17 6.74L26.17 6.74Q25.68 7.08 25.34 7.67L25.34 7.67L25.34 7.67Q24.99 8.26 24.86 9.02L24.86 9.02L24.02 13.78L23.03 13.78ZM31.88 13.78L31.88 13.78Q30.47 13.78 30.47 12.37L30.47 12.37L30.47 12.37Q30.47 12.07 30.54 11.71L30.54 11.71L31.47 6.45L30.48 6.45L30.63 5.63L31.61 5.63L32.09 3.76L32.92 3.76L32.59 5.63L34.34 5.63L34.20 6.45L32.45 6.45L31.55 11.59L31.55 11.59Q31.48 11.95 31.48 12.23L31.48 12.23L31.48 12.23Q31.48 12.62 31.65 12.79L31.65 12.79L31.65 12.79Q31.83 12.95 32.23 12.95L32.23 12.95L32.88 12.95L32.74 13.78L31.88 13.78ZM36.63 13.96L36.63 13.96Q35.46 13.96 34.80 13.22L34.80 13.22L34.80 13.22Q34.13 12.48 34.13 11.03L34.13 11.03L34.13 11.03Q34.13 10.40 34.26 9.67L34.26 9.67L34.26 9.67Q34.51 8.26 35.05 7.32L35.05 7.32L35.05 7.32Q35.59 6.38 36.35 5.93L36.35 5.93L36.35 5.93Q37.11 5.48 38.01 5.48L38.01 5.48L38.01 5.48Q39.16 5.48 39.83 6.22L39.83 6.22L39.83 6.22Q40.50 6.97 40.50 8.43L40.50 8.43L40.50 8.43Q40.50 9.07 40.37 9.81L40.37 9.81L40.37 9.81Q40.13 11.19 39.59 12.12L39.59 12.12L39.59 12.12Q39.04 13.05 38.28 13.50L38.28 13.50L38.28 13.50Q37.52 13.96 36.63 13.96L36.63 13.96ZM36.67 13.04L36.67 13.04Q37.71 13.04 38.42 12.22L38.42 12.22L38.42 12.22Q39.14 11.41 39.44 9.67L39.44 9.67L39.44 9.67Q39.57 8.96 39.57 8.38L39.57 8.38L39.57 8.38Q39.57 6.38 37.97 6.38L37.97 6.38L37.97 6.38Q36.96 6.38 36.24 7.21L36.24 7.21L36.24 7.21Q35.53 8.04 35.22 9.81L35.22 9.81L35.22 9.81Q35.10 10.53 35.10 11.07L35.10 11.07L35.10 11.07Q35.10 13.04 36.67 13.04L36.67 13.04ZM44.43 13.78L46.37 2.80L48.63 2.80L48.63 2.80Q50.40 2.80 51.32 3.79L51.32 3.79L51.32 3.79Q52.25 4.79 52.25 6.70L52.25 6.70L52.25 6.70Q52.25 7.50 52.08 8.46L52.08 8.46L52.08 8.46Q51.78 10.17 51.06 11.36L51.06 11.36L51.06 11.36Q50.33 12.55 49.24 13.17L49.24 13.17L49.24 13.17Q48.14 13.78 46.73 13.78L46.73 13.78L44.43 13.78ZM45.65 12.80L46.69 12.80L46.69 12.80Q48.48 12.80 49.57 11.67L49.57 11.67L49.57 11.67Q50.65 10.53 51.06 8.22L51.06 8.22L51.06 8.22Q51.21 7.32 51.21 6.63L51.21 6.63L51.21 6.63Q51.21 5.18 50.54 4.48L50.54 4.48L50.54 4.48Q49.87 3.77 48.48 3.77L48.48 3.77L47.24 3.77L45.65 12.80ZM55.36 13.96L55.36 13.96Q54.19 13.96 53.52 13.22L53.52 13.22L53.52 13.22Q52.86 12.48 52.86 11.03L52.86 11.03L52.86 11.03Q52.86 10.40 52.99 9.67L52.99 9.67L52.99 9.67Q53.23 8.26 53.77 7.32L53.77 7.32L53.77 7.32Q54.32 6.38 55.07 5.93L55.07 5.93L55.07 5.93Q55.83 5.48 56.73 5.48L56.73 5.48L56.73 5.48Q57.89 5.48 58.56 6.22L58.56 6.22L58.56 6.22Q59.23 6.97 59.23 8.43L59.23 8.43L59.23 8.43Q59.23 9.07 59.10 9.81L59.10 9.81L59.10 9.81Q58.86 11.19 58.31 12.12L58.31 12.12L58.31 12.12Q57.76 13.05 57.00 13.50L57.00 13.50L57.00 13.50Q56.25 13.96 55.36 13.96L55.36 13.96ZM55.40 13.04L55.40 13.04Q56.44 13.04 57.15 12.22L57.15 12.22L57.15 12.22Q57.86 11.41 58.17 9.67L58.17 9.67L58.17 9.67Q58.30 8.96 58.30 8.38L58.30 8.38L58.30 8.38Q58.30 6.38 56.69 6.38L56.69 6.38L56.69 6.38Q55.68 6.38 54.97 7.21L54.97 7.21L54.97 7.21Q54.26 8.04 53.94 9.81L53.94 9.81L53.94 9.81Q53.82 10.53 53.82 11.07L53.82 11.07L53.82 11.07Q53.82 13.04 55.40 13.04L55.40 13.04ZM62.34 13.96L62.34 13.96Q61.13 13.96 60.56 13.15L60.56 13.15L60.56 13.15Q59.99 12.34 59.99 11.00L59.99 11.00L59.99 11.00Q59.99 10.34 60.11 9.66L60.11 9.66L60.11 9.66Q60.31 8.48 60.78 7.54L60.78 7.54L60.78 7.54Q61.24 6.60 61.98 6.04L61.98 6.04L61.98 6.04Q62.72 5.48 63.71 5.48L63.71 5.48L63.71 5.48Q64.75 5.48 65.28 6.02L65.28 6.02L65.28 6.02Q65.82 6.56 65.96 7.58L65.96 7.58L65.06 7.88L65.06 7.88Q65.03 7.13 64.71 6.74L64.71 6.74L64.71 6.74Q64.38 6.35 63.68 6.35L63.68 6.35L63.68 6.35Q62.59 6.35 61.96 7.36L61.96 7.36L61.96 7.36Q61.34 8.37 61.09 9.80L61.09 9.80L61.09 9.80Q60.96 10.53 60.96 11.10L60.96 11.10L60.96 11.10Q60.96 11.98 61.28 12.52L61.28 12.52L61.28 12.52Q61.61 13.06 62.38 13.06L62.38 13.06L62.38 13.06Q63.77 13.06 64.42 11.50L64.42 11.50L65.19 11.89L65.19 11.89Q64.72 12.92 64.03 13.44L64.03 13.44L64.03 13.44Q63.35 13.96 62.34 13.96L62.34 13.96ZM69.95 5.48L69.95 5.48Q72.24 5.48 72.24 8.09L72.24 8.09L72.24 8.09Q72.24 8.74 72.07 9.70L72.07 9.70L72.07 9.70Q72.02 10.01 71.98 10.14L71.98 10.14L67.20 10.14L67.20 10.14Q67.15 10.55 67.15 10.84L67.15 10.84L67.15 10.84Q67.15 11.81 67.56 12.41L67.56 12.41L67.56 12.41Q67.96 13.02 68.82 13.02L68.82 13.02L68.82 13.02Q69.85 13.02 70.77 12.20L70.77 12.20L71.29 12.92L71.29 12.92Q70.66 13.47 70.04 13.71L70.04 13.71L70.04 13.71Q69.42 13.94 68.78 13.94L68.78 13.94L68.78 13.94Q67.89 13.94 67.31 13.52L67.31 13.52L67.31 13.52Q66.73 13.10 66.46 12.40L66.46 12.40L66.46 12.40Q66.19 11.69 66.19 10.80L66.19 10.80L66.19 10.80Q66.19 10.26 66.29 9.63L66.29 9.63L66.29 9.63Q66.49 8.52 66.93 7.58L66.93 7.58L66.93 7.58Q67.38 6.65 68.13 6.06L68.13 6.06L68.13 6.06Q68.89 5.48 69.95 5.48L69.95 5.48ZM69.88 6.40L69.88 6.40Q68.84 6.40 68.23 7.21L68.23 7.21L68.23 7.21Q67.62 8.02 67.35 9.26L67.35 9.26L71.24 9.26L71.24 9.26Q71.36 8.48 71.36 7.99L71.36 7.99L71.36 7.99Q71.36 7.19 71.03 6.79L71.03 6.79L71.03 6.79Q70.69 6.40 69.88 6.40L69.88 6.40ZM72.81 13.78L74.25 5.63L75.25 5.63L75.02 6.87L75.07 6.87L75.07 6.87Q75.49 6.21 76.02 5.84L76.02 5.84L76.02 5.84Q76.54 5.48 77.16 5.48L77.16 5.48L77.16 5.48Q78.03 5.48 78.51 6.00L78.51 6.00L78.51 6.00Q78.98 6.53 78.98 7.46L78.98 7.46L78.98 7.46Q78.98 7.83 78.91 8.22L78.91 8.22L77.94 13.78L76.95 13.78L77.92 8.24L77.92 8.24Q78.00 7.81 78.00 7.52L78.00 7.52L78.00 7.52Q78.00 6.92 77.74 6.67L77.74 6.67L77.74 6.67Q77.48 6.41 76.97 6.41L76.97 6.41L76.97 6.41Q76.43 6.41 75.95 6.74L75.95 6.74L75.95 6.74Q75.46 7.08 75.12 7.67L75.12 7.67L75.12 7.67Q74.77 8.26 74.64 9.02L74.64 9.02L73.80 13.78L72.81 13.78ZM81.66 13.78L81.66 13.78Q80.25 13.78 80.25 12.37L80.25 12.37L80.25 12.37Q80.25 12.07 80.32 11.71L80.32 11.71L81.25 6.45L80.26 6.45L80.40 5.63L81.39 5.63L81.87 3.76L82.70 3.76L82.37 5.63L84.12 5.63L83.98 6.45L82.23 6.45L81.33 11.59L81.33 11.59Q81.26 11.95 81.26 12.23L81.26 12.23L81.26 12.23Q81.26 12.62 81.43 12.79L81.43 12.79L81.43 12.79Q81.61 12.95 82.01 12.95L82.01 12.95L82.66 12.95L82.52 13.78L81.66 13.78ZM87.68 5.48L87.68 5.48Q89.97 5.48 89.97 8.09L89.97 8.09L89.97 8.09Q89.97 8.74 89.80 9.70L89.80 9.70L89.80 9.70Q89.75 10.01 89.71 10.14L89.71 10.14L84.93 10.14L84.93 10.14Q84.88 10.55 84.88 10.84L84.88 10.84L84.88 10.84Q84.88 11.81 85.29 12.41L85.29 12.41L85.29 12.41Q85.70 13.02 86.55 13.02L86.55 13.02L86.55 13.02Q87.58 13.02 88.50 12.20L88.50 12.20L89.02 12.92L89.02 12.92Q88.40 13.47 87.77 13.71L87.77 13.71L87.77 13.71Q87.15 13.94 86.51 13.94L86.51 13.94L86.51 13.94Q85.62 13.94 85.04 13.52L85.04 13.52L85.04 13.52Q84.46 13.10 84.19 12.40L84.19 12.40L84.19 12.40Q83.92 11.69 83.92 10.80L83.92 10.80L83.92 10.80Q83.92 10.26 84.03 9.63L84.03 9.63L84.03 9.63Q84.23 8.52 84.67 7.58L84.67 7.58L84.67 7.58Q85.11 6.65 85.86 6.06L85.86 6.06L85.86 6.06Q86.62 5.48 87.68 5.48L87.68 5.48ZM87.62 6.40L87.62 6.40Q86.57 6.40 85.96 7.21L85.96 7.21L85.96 7.21Q85.35 8.02 85.09 9.26L85.09 9.26L88.97 9.26L88.97 9.26Q89.09 8.48 89.09 7.99L89.09 7.99L89.09 7.99Q89.09 7.19 88.76 6.79L88.76 6.79L88.76 6.79Q88.42 6.40 87.62 6.40L87.62 6.40Z"></path></g><!----><!----></svg>